<?xml version="1.0" standalone="no"?>
<!DOCTYPE svg PUBLIC "-//W3C//DTD SVG 20010904//EN"
 "http://www.w3.org/TR/2001/REC-SVG-20010904/DTD/svg10.dtd">
<svg version="1.0" xmlns="http://www.w3.org/2000/svg"
 width="800.000000pt" height="492.000000pt" viewBox="0 0 800.000000 492.000000"
 preserveAspectRatio="xMidYMid meet">

<g transform="translate(0.000000,492.000000) scale(0.100000,-0.100000)"
fill="#000000" stroke="none">
<path d="M0 2460 l0 -2460 4000 0 4000 0 0 509 0 508 -47 6 c-154 20 -147 20
-173 -2 -14 -11 -19 -20 -12 -21 8 0 12 -16 12 -47 0 -65 -30 -102 -88 -110
-48 -6 -71 8 -97 60 -14 28 -13 34 6 74 16 33 32 49 65 65 48 22 60 44 19 34
-14 -4 -25 -2 -25 3 0 11 -45 28 -97 36 -24 4 -43 11 -43 16 0 12 -76 12 -116
0 -36 -10 -117 2 -122 18 -2 6 -10 11 -18 11 -21 0 -63 51 -64 76 0 11 -9 29
-20 39 -11 10 -20 24 -20 32 0 7 -9 13 -20 13 -11 0 -20 7 -20 15 0 8 -9 19
-20 25 -11 6 -20 15 -20 21 0 6 -7 18 -16 26 -13 14 -17 14 -26 2 -6 -10 -7
-7 -2 11 l7 25 -22 -19 c-12 -11 -27 -21 -34 -22 -7 -1 -41 -30 -77 -65 -36
-35 -58 -59 -50 -54 9 5 8 0 -4 -13 -21 -24 -30 -29 -21 -9 4 6 -1 3 -9 -7 -9
-11 -16 -16 -16 -11 0 5 -15 -7 -34 -27 -40 -43 -56 -90 -56 -170 l0 -58 -95
-1 c-52 -1 -100 -2 -107 -3 -26 -2 0 241 32 304 11 21 65 83 121 137 55 54
111 116 124 138 23 39 31 95 14 95 -5 0 -9 7 -9 15 0 8 -4 15 -9 15 -6 0 -15
27 -22 60 -6 33 -15 60 -19 60 -4 0 -12 12 -18 26 -9 19 -9 24 0 18 8 -5 9 -2
5 10 -6 14 -3 17 10 12 16 -5 16 -5 0 8 -11 8 -26 12 -35 9 -10 -4 -13 -2 -8
5 9 16 -101 16 -141 1 -71 -27 -123 -114 -138 -232 -4 -31 -11 -57 -15 -57
-14 0 -204 40 -207 44 -6 6 18 137 33 180 8 22 11 54 8 76 -7 45 17 80 55 80
13 0 41 16 64 36 22 20 58 45 81 55 23 10 51 29 64 43 25 30 67 34 98 11 11
-8 40 -14 69 -14 28 0 43 3 35 6 -8 2 -22 7 -30 10 -11 3 -9 8 10 18 14 8 19
14 11 15 -7 0 -11 6 -7 15 4 10 -1 15 -14 15 -15 0 -20 7 -20 28 0 16 -3 32
-7 36 -11 11 -13 39 -2 52 6 8 3 13 -11 17 -11 3 -25 17 -31 31 -16 33 4 76
35 76 34 1 70 34 63 59 -4 15 -2 21 6 18 8 -3 12 14 12 57 1 33 -1 53 -3 44
-8 -41 -20 -14 -19 42 1 33 5 60 10 60 4 0 7 45 7 100 0 79 3 100 14 100 9 0
15 14 18 40 2 22 -1 40 -6 40 -13 0 1 85 22 134 29 65 80 116 143 143 44 19
56 29 52 42 -4 18 49 81 68 81 5 0 9 6 9 14 0 16 30 26 78 26 18 0 33 5 34 13
0 6 1 19 2 27 1 8 11 19 24 25 12 5 22 15 22 21 0 7 7 15 16 18 12 4 14 14 9
36 -5 22 -3 32 9 36 25 10 48 -14 35 -37 -6 -13 -6 -19 1 -19 5 0 10 7 10 15
0 20 5 19 36 -10 28 -26 44 -32 44 -15 0 6 -7 10 -15 10 -8 0 -12 6 -9 14 6
15 94 10 105 -6 4 -6 17 -3 33 7 14 9 33 15 41 12 8 -4 30 0 50 9 21 8 35 10
35 4 0 -5 18 -10 40 -10 22 0 40 5 40 10 0 6 33 10 80 10 47 0 80 -4 80 -10 0
-6 33 -10 80 -10 l80 0 0 665 0 665 -4000 0 -4000 0 0 -2460z m6844 2334 c7
-19 -1 -34 -19 -34 -18 0 -28 17 -21 35 7 20 32 19 40 -1z m-114 -194 c0 -5
-4 -10 -10 -10 -5 0 -10 5 -10 10 0 6 5 10 10 10 6 0 10 -4 10 -10z m512 -165
c29 -14 60 -25 69 -25 9 0 24 -11 33 -24 15 -24 15 -26 -12 -43 -52 -36 -125
-63 -167 -63 -25 0 -40 8 -59 31 -35 41 -34 83 3 120 36 36 63 36 133 4z
m-3865 -155 c8 0 8 -10 0 -35 -9 -32 -14 -36 -41 -33 -26 2 -32 8 -34 31 -2
17 4 37 14 48 15 17 19 18 34 4 9 -8 21 -15 27 -15z m-201 -64 c17 -18 18 -52
2 -63 -21 -12 -78 -9 -78 5 0 6 -7 12 -15 12 -25 0 -17 17 18 39 38 25 53 26
73 7z m262 -165 c12 -10 22 -28 22 -39 0 -19 -4 -20 -40 -12 -16 3 -41 31 -45
49 -3 16 1 21 19 21 13 0 33 -8 44 -19z m4034 -38 c22 -21 28 -36 28 -68 0
-75 -56 -117 -127 -95 -58 19 -73 37 -73 86 0 31 7 51 26 73 22 26 33 31 72
31 36 0 52 -6 74 -27z m-4478 -60 c-8 -12 -14 -32 -14 -43 0 -18 -4 -21 -27
-16 -16 3 -44 8 -63 12 -19 3 -40 7 -47 8 -31 5 -21 17 33 42 80 36 107 42
121 30 9 -9 8 -16 -3 -33z m190 11 c30 -12 12 -44 -25 -44 -10 0 -12 33 -2 43
8 8 8 8 27 1z m2458 -86 c48 -14 113 -82 127 -134 31 -110 2 -188 -104 -290
-68 -66 -74 -75 -81 -122 l-7 -52 -52 0 c-55 0 -65 8 -65 53 0 18 -7 22 -36
25 -48 3 -50 5 -84 71 l-29 58 25 24 c14 13 29 24 32 23 4 -1 18 6 31 15 30
20 88 15 119 -10 14 -10 21 -19 17 -19 -5 0 -6 -3 -2 -6 9 -9 66 38 88 72 24
39 26 130 4 161 -23 32 -77 47 -120 33 -47 -15 -73 -52 -81 -112 l-7 -50 -45
7 c-73 11 -75 13 -68 59 8 48 40 122 64 150 45 51 179 73 274 44z m-859 -57
c105 -27 168 -63 253 -143 77 -74 118 -147 150 -268 23 -86 23 -244 1 -329
-44 -167 -100 -242 -326 -444 -68 -60 -136 -130 -151 -154 -38 -60 -65 -214
-29 -163 9 12 10 12 5 -3 -3 -10 -6 -59 -6 -108 0 -58 -4 -88 -10 -84 -5 3
-10 19 -10 36 0 26 -3 29 -30 29 -17 0 -30 -5 -31 -12 -3 -51 -24 -82 -51 -75
-27 7 -22 -2 7 -13 27 -10 36 -50 11 -50 -8 0 -16 -7 -20 -15 -7 -20 32 -29
95 -21 37 5 51 3 54 -7 4 -8 17 -12 39 -9 28 3 37 -1 51 -22 16 -24 16 -27 -2
-58 -22 -38 -44 -46 -67 -23 -15 15 -16 15 -16 -7 0 -13 6 -30 13 -37 8 -10 8
-12 0 -7 -17 10 -26 -69 -15 -129 5 -27 10 -42 11 -32 2 27 45 39 90 25 33
-10 40 -17 45 -46 3 -20 -1 -49 -9 -70 -8 -19 -15 -43 -15 -54 0 -10 -3 -17
-7 -15 -5 3 -19 -12 -32 -34 -14 -21 -28 -36 -33 -33 -7 5 13 48 67 139 13 22
24 44 24 48 2 16 -20 -6 -29 -29 -5 -13 -17 -24 -27 -24 -15 0 -16 -2 -3 -10
13 -9 13 -10 0 -11 -8 -1 -19 -1 -24 0 -4 1 -14 -6 -22 -16 -7 -10 -14 -14
-14 -9 0 6 -16 -5 -35 -24 -38 -37 -39 -35 -35 43 l2 47 -50 0 c-31 0 -52 -5
-55 -12 -4 -10 -8 -9 -16 2 -8 12 -30 14 -106 12 l-95 -3 0 76 c0 83 -16 165
-33 165 -6 0 -1 10 11 23 17 18 22 36 22 80 l0 57 53 1 c55 0 149 16 109 18
-12 0 -25 8 -28 16 -4 8 -22 22 -41 31 -21 11 -32 22 -29 30 4 10 -3 14 -22
14 -15 0 -43 4 -62 10 -24 7 -36 6 -41 -2 -5 -7 -21 -2 -53 18 -25 16 -46 31
-46 34 0 14 37 55 50 55 9 0 17 13 21 35 l6 35 2 -32 c0 -17 7 -38 14 -45 8
-7 13 -21 11 -31 -1 -9 6 -27 16 -39 26 -33 81 -30 121 8 30 27 31 27 26 7 -4
-17 -1 -23 13 -23 12 0 18 8 18 25 0 23 -3 24 -54 22 l-54 -3 0 68 c0 66 -1
68 -25 66 -20 -2 -25 -8 -25 -30 0 -15 -4 -28 -10 -28 -5 0 -10 16 -10 35 0
33 2 35 35 35 31 0 35 3 35 25 0 14 -6 25 -12 26 -10 0 -10 2 0 6 7 3 12 23
12 49 0 25 -4 43 -9 40 -5 -4 -15 7 -23 24 -7 16 -20 30 -29 30 -23 0 -41 25
-37 52 2 18 9 23 33 23 23 0 31 -5 33 -22 6 -38 49 -31 66 11 8 19 33 60 57
91 23 30 39 58 36 62 -10 10 27 64 40 59 7 -3 15 -1 18 4 3 5 12 7 20 4 12 -5
162 134 207 193 29 38 48 94 59 171 12 85 5 136 -18 128 -9 -4 -13 -1 -10 6 2
7 10 12 16 10 16 -3 4 61 -19 108 -22 44 -52 71 -110 101 -61 32 -193 33 -260
2 -84 -38 -141 -106 -171 -205 -24 -75 -24 -81 -1 -70 9 6 45 6 82 2 54 -6 58
-8 25 -10 -22 -1 -32 -4 -22 -7 9 -2 17 -9 17 -15 0 -6 8 -17 18 -24 14 -10
15 -15 4 -26 -11 -11 -15 -10 -23 5 -11 18 -39 24 -39 7 0 -5 -6 -7 -14 -4
-15 6 -51 -48 -40 -59 3 -3 1 -14 -5 -25 -8 -15 -8 -22 2 -25 7 -4 6 -6 -4 -6
-9 -1 -19 -8 -23 -16 -4 -13 -2 -14 14 -5 28 15 25 6 -14 -36 -26 -28 -38 -35
-55 -29 -22 7 -29 25 -10 25 8 0 8 4 1 13 -7 8 -9 29 -6 49 l6 36 -78 17 c-44
10 -104 23 -134 30 l-55 12 4 49 c5 72 47 228 79 298 16 34 57 96 91 139 57
70 72 81 149 118 165 79 369 97 555 50z m-363 -402 c0 -12 -7 -19 -20 -19 -20
0 -25 15 -14 44 8 21 34 2 34 -25z m-1074 -22 c80 -42 117 -110 118 -217 0
-75 -28 -124 -114 -201 -64 -58 -96 -108 -83 -131 7 -12 41 -9 45 3 7 22 45
-9 67 -56 19 -40 61 -95 61 -79 0 4 7 0 16 -7 15 -12 16 -11 9 11 -7 24 -7 24
9 5 18 -23 21 -13 5 16 -5 11 -14 17 -20 14 -5 -4 -9 -1 -9 4 0 6 12 11 26 11
23 0 84 52 84 72 0 5 4 8 9 8 12 0 30 -76 24 -99 -6 -23 0 -27 56 -36 41 -7
44 -6 38 14 -3 14 0 21 9 21 8 0 14 -9 14 -21 0 -14 -11 -25 -37 -36 -49 -20
-49 -20 -30 -41 9 -10 18 -29 19 -43 3 -20 -2 -24 -29 -27 -23 -2 -37 3 -49
17 -16 18 -19 18 -29 4 -10 -14 -12 -14 -12 3 0 11 5 26 12 34 13 15 19 41 16
70 -1 12 -5 11 -16 -4 -15 -20 -15 -20 -15 0 0 16 -2 17 -10 4 -5 -8 -10 -11
-10 -5 0 5 -7 -1 -16 -13 -11 -16 -13 -26 -5 -35 5 -7 8 -22 5 -34 -3 -11 1
-27 10 -36 9 -8 16 -28 16 -42 0 -18 6 -29 20 -32 11 -3 20 -12 20 -19 0 -19
-19 -18 -26 1 -4 8 -14 15 -24 15 -10 0 -34 7 -53 15 -20 8 -39 15 -42 15 -13
0 26 -58 54 -79 17 -13 31 -29 31 -35 0 -8 -3 -8 -8 0 -13 19 -79 64 -93 64
-8 0 -23 -13 -32 -30 -10 -16 -27 -35 -39 -41 -15 -8 -19 -8 -14 0 14 22 -40
11 -60 -12 -20 -22 -37 -57 -29 -57 2 0 20 9 39 21 20 11 41 19 48 16 7 -3 -1
-10 -19 -17 -39 -14 -66 -53 -57 -82 4 -13 2 -18 -5 -14 -7 5 -9 -10 -7 -44 3
-57 -6 -65 -22 -17 l-10 32 2 -40 c1 -32 -2 -40 -16 -39 -11 1 -18 -5 -18 -16
0 -20 -27 -46 -37 -36 -3 3 -1 6 5 6 16 0 15 33 0 48 -9 9 -8 12 7 12 37 0 4
13 -42 16 -74 6 -91 12 -98 35 -5 14 0 31 15 51 27 37 21 45 -14 17 -23 -18
-27 -28 -24 -56 3 -20 0 -32 -6 -30 -17 6 -11 74 7 92 17 16 87 33 87 21 0 -4
-7 -17 -15 -29 -14 -22 -13 -23 8 -22 13 0 31 8 40 17 18 18 23 58 7 58 -5 0
-10 5 -10 10 0 21 19 9 32 -20 14 -32 24 -38 30 -18 3 9 12 8 31 -5 15 -10 27
-15 27 -13 0 2 3 11 6 20 5 12 0 16 -19 16 -23 0 -25 4 -23 33 2 27 10 36 49
57 57 31 78 50 55 50 -9 0 -18 8 -22 18 -3 9 -9 24 -12 32 -5 13 -4 13 5 0 9
-12 11 -11 11 8 0 12 6 22 15 22 8 0 24 5 37 10 19 9 23 19 23 54 0 39 -2 42
-18 32 -9 -6 -16 -20 -15 -31 2 -14 -3 -20 -17 -20 -11 0 -20 -7 -20 -15 0
-12 -16 -16 -73 -18 l-73 -3 3 78 3 78 48 3 c52 3 58 10 26 31 -18 10 -19 15
-8 22 10 6 2 9 -23 9 -37 0 -38 1 -38 40 0 56 19 137 36 150 7 7 11 16 8 21
-3 5 -1 8 4 7 12 -4 112 88 112 102 0 6 -4 10 -10 10 -5 0 -10 7 -10 16 0 19
25 45 35 36 4 -4 5 15 2 43 -16 152 -217 113 -217 -41 l0 -36 -57 5 c-42 4
-49 4 -25 -2 44 -12 52 -21 16 -21 -22 0 -26 -3 -14 -10 12 -8 11 -10 -7 -10
-14 0 -23 -6 -23 -15 0 -14 -3 -14 -30 0 -36 19 -37 28 -7 52 12 10 21 26 19
36 -5 24 35 137 56 162 59 67 110 87 212 82 44 -2 88 -10 106 -20z m1138 -132
c-4 -8 -17 -15 -30 -15 -42 0 -25 27 18 29 12 1 15 -4 12 -14z m1106 -130 l0
-75 -67 0 -68 0 0 75 -1 75 68 0 68 0 0 -75z m-2880 33 c0 -25 -3 -29 -10 -18
-13 20 -13 50 0 50 6 0 10 -15 10 -32z m1740 17 c0 -3 -9 -14 -21 -26 -26 -26
-39 -16 -14 11 17 19 35 26 35 15z m50 -13 c25 -17 30 -41 15 -74 -4 -10 -13
-18 -21 -18 -7 0 -16 -11 -20 -25 -3 -14 -12 -25 -20 -25 -16 0 -19 26 -4 35
6 4 19 23 30 44 19 38 19 38 -1 60 -24 25 -13 27 21 3z m-1407 -70 c-11 -9
-23 -26 -26 -37 -4 -18 -5 -18 -6 2 -1 21 37 68 47 58 3 -3 -4 -13 -15 -23z
m85 12 c14 -10 22 -25 21 -42 l-1 -27 -7 25 c-4 15 -21 32 -41 42 -26 13 -30
18 -15 18 11 0 31 -7 43 -16z m1142 -12 c0 -10 -36 -9 -46 1 -4 4 5 7 19 7 15
0 27 -4 27 -8z m-1150 -27 c13 -34 -6 -65 -38 -62 -29 2 -46 30 -38 63 9 35
63 34 76 -1z m1470 4 c0 -8 5 -7 16 2 13 11 14 9 8 -17 -4 -16 -11 -31 -15
-34 -4 -3 -11 -18 -14 -33 -8 -32 -40 -37 -48 -7 -3 11 -16 24 -29 29 -12 6
-17 10 -11 10 8 1 11 12 9 31 -3 29 -2 30 40 30 26 0 44 -5 44 -11z m1173 -21
c21 -25 22 -47 1 -76 -31 -45 -114 -18 -114 38 0 65 69 88 113 38z m-3185 -15
c18 -17 23 -17 16 2 -7 17 7 20 23 4 7 -7 15 -5 27 7 26 25 29 11 3 -17 -16
-17 -22 -35 -21 -69 0 -42 -2 -46 -24 -48 -14 -1 -31 3 -38 9 -7 5 -41 14 -76
18 l-63 8 63 2 c39 1 61 5 57 11 -3 6 0 10 7 10 7 1 2 7 -12 15 -20 11 -21 14
-7 15 15 0 16 3 7 20 -6 11 -21 20 -33 20 -30 0 -119 -44 -110 -54 5 -4 1 -7
-7 -6 -34 5 -43 1 -30 -15 7 -8 8 -15 2 -15 -14 0 -29 21 -37 53 -5 17 -3 27
4 27 10 0 15 -13 12 -32 0 -4 15 1 34 12 20 11 45 20 56 20 11 0 27 7 35 15
18 18 90 10 112 -12z m447 -13 c3 -5 1 -10 -4 -10 -6 0 -11 5 -11 10 0 6 2 10
4 10 3 0 8 -4 11 -10z m-498 -6 c-3 -3 -12 -4 -19 -1 -8 3 -5 6 6 6 11 1 17
-2 13 -5z m3504 -4 c23 -13 25 -58 3 -67 -36 -13 -68 33 -44 62 15 18 16 18
41 5z m-3325 -36 c19 -3 34 -10 34 -14 0 -5 10 -10 23 -12 14 -2 22 -10 22
-23 1 -11 4 -26 9 -33 4 -7 6 -16 2 -19 -8 -8 -36 23 -36 40 0 11 -14 14 -60
12 l-61 -2 7 31 c8 39 16 54 22 38 2 -6 19 -14 38 -18z m368 5 c-3 -5 -14 -5
-25 1 -26 14 -24 18 6 12 14 -2 22 -8 19 -13z m-804 1 c0 -5 -7 -10 -16 -10
-8 0 -12 5 -9 10 3 6 10 10 16 10 5 0 9 -4 9 -10z m850 6 c0 -3 -4 -8 -10 -11
-5 -3 -10 -1 -10 4 0 6 5 11 10 11 6 0 10 -2 10 -4z m1300 -11 c0 -8 -4 -15
-9 -15 -5 0 -11 7 -15 15 -3 9 0 15 9 15 8 0 15 -7 15 -15z m-2100 -5 c0 -5
-4 -10 -9 -10 -6 0 -13 5 -16 10 -3 6 1 10 9 10 9 0 16 -4 16 -10z m-40 -30
c0 -5 -4 -10 -10 -10 -5 0 -10 5 -10 10 0 6 5 10 10 10 6 0 10 -4 10 -10z
m1318 -17 c4 -28 -32 -50 -54 -32 -15 12 -19 41 -7 53 16 15 58 1 61 -21z
m2570 -5 c6 -48 -69 -64 -81 -17 -7 26 20 51 52 47 20 -2 27 -9 29 -30z
m-1738 12 c0 -5 -4 -10 -10 -10 -5 0 -10 5 -10 10 0 6 5 10 10 10 6 0 10 -4
10 -10z m-1155 -49 c3 -5 1 -12 -5 -16 -5 -3 -10 1 -10 9 0 18 6 21 15 7z
m569 -37 c61 -15 135 -65 157 -106 14 -26 6 -33 -15 -12 -9 9 -20 13 -24 10
-10 -11 -11 -66 0 -66 5 0 6 5 3 10 -8 13 8 13 22 -1 8 -8 17 -8 31 0 17 9 20
7 20 -13 0 -15 -9 -28 -24 -35 -13 -6 -24 -15 -24 -21 0 -5 0 -13 0 -17 0 -11
71 -13 89 -3 14 8 14 9 1 10 -12 0 -11 3 3 11 25 15 29 8 14 -30 -11 -29 -10
-34 7 -46 17 -13 17 -15 2 -31 -13 -13 -14 -19 -5 -30 9 -11 9 -18 1 -26 -7
-7 -12 -20 -12 -30 0 -10 -7 -18 -15 -18 -8 0 -15 5 -15 10 0 6 5 10 12 10 6
0 9 2 6 5 -3 3 -16 1 -29 -4 -13 -5 -18 -10 -11 -10 23 -2 12 -19 -16 -26 -19
-4 -32 -15 -39 -33 l-10 -27 -12 41 c-15 46 -5 75 46 128 20 22 22 28 9 23
-13 -5 -25 -1 -38 13 -19 20 -19 21 6 16 14 -3 31 -8 37 -12 8 -5 9 -3 5 5 -8
12 -47 31 -75 37 -8 1 -27 -4 -42 -12 -16 -8 -30 -14 -33 -14 -2 0 -17 20 -32
44 -32 51 -67 74 -126 84 -50 9 -64 37 -26 51 25 9 27 19 6 32 -35 23 -83 -4
-71 -38 6 -15 -13 -17 -22 -3 -3 6 -18 11 -33 11 -17 1 -20 3 -10 6 16 4 16 6
3 19 -9 9 -15 33 -14 57 0 38 1 40 10 17 10 -24 11 -24 25 -6 8 11 14 23 14
27 0 4 16 7 36 7 19 0 38 2 41 6 8 8 99 -3 167 -20z m291 15 c4 -6 -2 -19 -14
-30 -21 -20 -21 -20 -21 4 0 35 21 50 35 26z m-87 -16 c0 -5 2 -16 6 -25 19
-43 -24 -64 -48 -25 -8 14 -8 20 4 27 13 9 13 10 0 11 -10 0 -8 3 5 9 26 11
35 12 33 3z m-1198 -58 c0 -11 -41 -25 -53 -18 -8 5 -4 9 13 14 33 9 40 10 40
4z m235 -15 c3 -5 -1 -10 -9 -10 -9 0 -16 5 -16 10 0 6 4 10 9 10 6 0 13 -4
16 -10z m3513 -21 c11 -18 11 -23 -5 -35 -29 -22 -52 -17 -59 13 -5 19 -2 30
10 39 22 15 37 10 54 -17z m-3828 1 c-20 -13 -63 -13 -55 0 3 6 21 10 38 10
24 0 28 -3 17 -10z m-497 -16 c23 -8 22 -31 -3 -44 -17 -9 -20 -8 -20 9 0 11
-4 23 -10 26 -15 9 -12 28 3 21 6 -3 20 -9 30 -12z m3319 -17 c40 -51 0 -126
-60 -112 -55 12 -70 57 -36 113 17 29 23 33 49 28 17 -4 38 -16 47 -29z m1066
22 c-2 -6 -8 -10 -13 -10 -5 0 -11 4 -13 10 -2 6 4 11 13 11 9 0 15 -5 13 -11z
m-2393 -19 c-3 -5 -12 -10 -18 -10 -7 0 -6 4 3 10 19 12 23 12 15 0z m-65 -30
c0 -5 -7 -10 -15 -10 -8 0 -15 5 -15 10 0 6 7 10 15 10 8 0 15 -4 15 -10z
m2430 -29 c0 -40 -17 -48 -44 -22 -21 22 -21 22 -2 37 31 22 46 17 46 -15z
m-3790 -17 c0 -15 -6 -24 -15 -24 -18 0 -30 24 -21 45 8 22 36 6 36 -21z
m3664 20 c21 -21 20 -36 -5 -63 -22 -23 -50 -21 -77 5 -14 15 -8 54 12 66 19
13 54 9 70 -8z m-2803 -4 c27 -15 24 -25 -11 -27 -24 -2 -30 2 -30 17 0 22 12
25 41 10z m356 -12 c-3 -8 -6 -5 -6 6 -1 11 2 17 5 13 3 -3 4 -12 1 -19z
m1883 -2 c0 -24 -36 -60 -53 -53 -17 6 -23 47 -10 60 12 13 63 7 63 -7z
m-1892 -47 c-3 -8 -7 -3 -11 10 -4 17 -3 21 5 13 5 -5 8 -16 6 -23z m-577 -2
c-10 -9 -11 -8 -5 6 3 10 9 15 12 12 3 -3 0 -11 -7 -18z m2577 0 c2 -10 -3
-17 -12 -17 -18 0 -29 16 -21 31 9 14 29 6 33 -14z m-2228 3 c0 -5 -4 -10 -10
-10 -5 0 -10 5 -10 10 0 6 5 10 10 10 6 0 10 -4 10 -10z m2541 -23 c-13 -13
-26 -3 -16 12 3 6 11 8 17 5 6 -4 6 -10 -1 -17z m-3694 -4 c2 -6 -3 -13 -12
-16 -10 -5 -15 0 -15 14 0 21 21 22 27 2z m3908 -63 c8 -25 -1 -40 -24 -40
-28 0 -46 26 -31 45 18 21 48 19 55 -5z m-1235 0 c0 -5 -4 -10 -9 -10 -6 0
-13 5 -16 10 -3 6 1 10 9 10 9 0 16 -4 16 -10z m-1132 -23 c2 -10 -3 -17 -12
-17 -18 0 -29 16 -21 31 9 14 29 6 33 -14z m-778 3 c0 -5 -4 -10 -9 -10 -6 0
-13 5 -16 10 -3 6 1 10 9 10 9 0 16 -4 16 -10z m-867 -7 c-7 -2 -13 -16 -13
-29 0 -13 -4 -24 -10 -24 -5 0 -10 11 -10 24 0 23 12 34 35 34 6 0 4 -2 -2 -5z
m34 -45 c-3 -7 -5 -2 -5 12 0 14 2 19 5 13 2 -7 2 -19 0 -25z m2552 3 c-15 -5
-22 6 -14 19 6 9 10 9 16 -1 5 -8 4 -15 -2 -18z m-261 -8 c5 -17 -26 -29 -40
-15 -6 6 -7 15 -3 22 9 14 37 9 43 -7z m-638 -19 c13 -32 13 -44 0 -44 -5 0
-10 14 -10 31 0 24 -4 30 -17 27 -15 -3 -18 -15 -20 -67 -2 -87 -13 -91 -13
-4 0 38 3 73 7 76 15 16 44 6 53 -19z m1720 -40 c0 -14 -21 -19 -33 -7 -9 9
13 34 24 27 5 -3 9 -12 9 -20z m-3423 -16 c-3 -7 -5 -2 -5 12 0 14 2 19 5 13
2 -7 2 -19 0 -25z m1583 10 c12 -8 11 -8 -4 -4 -10 4 -37 1 -60 -5 -38 -11
-39 -13 -16 -20 l25 -7 -28 -1 c-32 -1 -47 -30 -47 -91 0 -55 -7 -68 -46 -80
-23 -8 -34 -18 -34 -31 0 -25 35 -25 77 1 21 12 30 14 27 6 -12 -31 -87 -46
-117 -23 -24 18 -11 56 22 63 50 11 51 12 51 67 0 30 5 69 11 87 18 51 87 70
139 38z m-805 2 c3 -5 2 -10 -4 -10 -5 0 -13 5 -16 10 -3 6 -2 10 4 10 5 0 13
-4 16 -10z m265 -2 c-14 -5 -33 -14 -43 -20 -11 -5 -21 -7 -24 -4 -7 7 50 35
72 35 17 0 16 -2 -5 -11z m174 4 c3 -5 -7 -7 -22 -4 -17 2 -37 -4 -50 -15 -22
-18 -23 -19 -5 -38 10 -11 19 -28 19 -37 1 -10 2 -30 3 -44 1 -24 2 -24 23
-10 28 20 42 20 35 1 -4 -8 -2 -17 3 -20 6 -4 10 13 10 40 0 28 4 44 10 40 6
-3 10 -44 10 -91 0 -68 3 -84 15 -84 23 0 21 164 -3 211 l-18 35 62 -2 c46 -1
64 2 68 12 9 23 21 16 34 -19 16 -44 16 -68 1 -47 -8 12 -9 9 -5 -12 6 -26 4
-28 -28 -28 -19 0 -36 -6 -39 -12 -2 -7 -11 3 -19 22 l-15 35 1 -40 c2 -37 4
-40 34 -43 25 -3 31 0 26 12 -11 28 30 18 43 -11 7 -15 12 -27 10 -28 -1 -1
-21 -5 -45 -9 -29 -4 -41 -3 -37 4 6 9 -6 13 -22 8 -3 -2 -8 -18 -9 -36 -5
-56 -14 -72 -39 -72 -15 0 -26 7 -30 21 -4 12 -10 17 -14 12 -9 -14 -51 -23
-51 -11 0 6 -6 6 -14 -2 -8 -6 -25 -10 -38 -8 -19 2 -24 10 -26 42 -2 25 0 36
7 31 6 -3 11 -16 11 -29 0 -13 6 -23 15 -23 18 0 20 14 3 20 -10 3 -10 9 -1
28 26 55 22 80 -7 44 -34 -41 -140 17 -124 68 10 35 45 67 73 68 14 0 42 6 61
13 41 16 77 19 84 8z m1146 -7 c33 -19 21 -19 -21 0 -19 8 -27 14 -19 14 8 0
26 -6 40 -14z m260 8 c-51 -19 -83 -39 -95 -62 -8 -14 -14 -19 -14 -11 -1 8 3
20 7 26 12 19 76 54 97 53 14 0 16 -2 5 -6z m-376 -32 c-2 -3 -12 3 -22 13
-16 17 -16 18 5 5 12 -7 20 -15 17 -18z m-2197 -33 c-2 -13 -4 -5 -4 17 -1 22
1 32 4 23 2 -10 2 -28 0 -40z m-1547 22 c0 -11 -7 -20 -15 -20 -15 0 -21 21
-8 33 12 13 23 7 23 -13z m1870 16 c0 -2 -7 -9 -15 -16 -13 -11 -14 -10 -9 4
5 14 24 23 24 12z m480 -40 c0 -6 -7 -1 -15 10 -8 10 -15 23 -15 28 0 6 7 1
15 -10 8 -10 15 -23 15 -28z m-1020 17 c-1 -5 -7 -19 -14 -32 l-13 -23 -6 23
c-4 14 -1 26 6 31 15 10 27 10 27 1z m1134 -10 c-4 -10 -11 -49 -14 -88 l-7
-70 -1 62 c-2 54 12 113 26 113 2 0 1 -8 -4 -17z m2856 -9 c0 -23 3 -25 29
-19 25 5 31 2 51 -29 19 -31 20 -39 8 -62 -7 -15 -20 -28 -28 -30 -8 -1 -30
-6 -47 -9 -18 -4 -34 -4 -34 1 -8 59 -7 78 1 95 8 14 7 19 -3 19 -19 0 -50 36
-42 49 3 6 19 11 36 11 25 0 29 -4 29 -26z m-3026 -5 c20 -16 26 -29 26 -60 0
-21 -4 -39 -10 -39 -5 0 -10 7 -10 17 0 15 -2 15 -19 -1 -18 -16 -20 -16 -35
6 -18 26 -21 54 -6 63 16 10 12 28 -5 21 -8 -3 -15 -1 -15 4 0 18 47 11 74
-11z m748 8 c-23 -7 -35 -18 -41 -41 l-9 -31 -1 36 c-1 44 0 46 47 46 l37 1
-33 -11z m785 7 c-3 -3 -12 -4 -19 -1 -8 3 -5 6 6 6 11 1 17 -2 13 -5z m323
-7 c0 -7 -9 -20 -20 -30 -22 -18 -27 -57 -8 -57 6 0 20 7 30 17 21 19 23 6 3
-21 -12 -16 -19 -18 -40 -8 -31 14 -32 38 -3 69 27 29 17 41 -17 19 -14 -9
-25 -12 -25 -7 0 14 31 30 58 31 12 0 22 -6 22 -13z m-2784 -35 c-17 -16 -18
-16 -5 5 7 12 15 20 18 17 3 -2 -3 -12 -13 -22z m126 -4 c-8 -8 -9 -4 -5 13 4
13 8 18 11 10 2 -7 -1 -18 -6 -23z m3284 -13 c-5 -51 -16 -56 -16 -7 0 23 4
42 10 42 5 0 8 -16 6 -35z m-1146 -105 c-4 -35 -9 -45 -25 -48 -18 -2 -18 -2
-2 8 13 9 17 26 18 88 2 59 3 68 8 37 3 -22 4 -60 1 -85z m773 100 c-8 -29
-22 -35 -40 -17 -19 19 -9 37 22 37 18 0 22 -4 18 -20z m394 -27 c-3 -10 -5
-2 -5 17 0 19 2 27 5 18 2 -10 2 -26 0 -35z m-2967 33 c0 -3 -4 -8 -10 -11 -5
-3 -10 -1 -10 4 0 6 5 11 10 11 6 0 10 -2 10 -4z m2060 -146 c18 0 20 7 21 68
1 55 2 61 9 34 4 -18 6 -41 4 -50 -13 -69 -14 -72 -39 -72 -25 0 -25 0 -23 88
l2 87 3 -77 c3 -70 6 -78 23 -78z m986 123 c-7 -7 -26 7 -26 19 0 6 6 6 15 -2
9 -7 13 -15 11 -17z m-2506 1 c0 -8 -5 -12 -10 -9 -6 4 -8 11 -5 16 9 14 15
11 15 -7z m547 -6 c-3 -8 -6 -5 -6 6 -1 11 2 17 5 13 3 -3 4 -12 1 -19z m811
-28 c-1 -27 -6 -50 -11 -50 -5 0 -7 14 -3 31 3 17 6 40 6 50 0 11 2 19 5 19 3
0 4 -22 3 -50z m279 18 c-3 -7 -5 -2 -5 12 0 14 2 19 5 13 2 -7 2 -19 0 -25z
m853 -6 c6 -4 -23 -22 -37 -22 -7 0 -11 12 -10 29 2 28 3 29 22 13 11 -9 22
-18 25 -20z m-3373 -4 c-3 -7 -5 -2 -5 12 0 14 2 19 5 13 2 -7 2 -19 0 -25z
m1718 11 c-4 -5 5 -20 19 -34 30 -30 19 -34 -12 -5 -22 20 -32 67 -12 55 6 -4
8 -11 5 -16z m-1380 1 c3 -5 1 -10 -4 -10 -6 0 -11 5 -11 10 0 6 2 10 4 10 3
0 8 -4 11 -10z m1172 -22 c-3 -8 -6 -5 -6 6 -1 11 2 17 5 13 3 -3 4 -12 1 -19z
m1643 -25 c0 -6 5 -13 12 -15 6 -2 9 -10 6 -18 -3 -10 -11 -4 -23 18 -22 37
-31 40 -38 11 -5 -17 -9 -19 -26 -9 -28 15 -27 30 3 30 13 0 27 7 30 17 6 14
8 14 21 -3 8 -10 15 -24 15 -31z m-863 0 c-3 -10 -5 -4 -5 12 0 17 2 24 5 18
2 -7 2 -21 0 -30z m1139 -100 l-15 -48 6 64 c4 47 3 62 -6 57 -13 -8 -15 22
-4 51 6 14 10 7 21 -29 11 -40 11 -54 -2 -95z m134 127 c0 -5 -4 -10 -10 -10
-5 0 -10 5 -10 10 0 6 5 10 10 10 6 0 10 -4 10 -10z m-2283 -47 c-3 -10 -5 -2
-5 17 0 19 2 27 5 18 2 -10 2 -26 0 -35z m1282 -17 c15 -18 15 -18 -6 -5 -13
8 -23 17 -23 21 0 3 -3 15 -6 25 -5 15 -3 15 7 -2 6 -11 19 -29 28 -39z m818
22 c-3 -7 -5 -2 -5 12 0 14 2 19 5 13 2 -7 2 -19 0 -25z m-2367 -35 c-10 -16
-11 -15 -6 7 3 14 6 32 7 40 1 8 4 5 6 -7 2 -12 -1 -30 -7 -40z m500 53 c0 -3
-4 -8 -10 -11 -5 -3 -10 -1 -10 4 0 6 5 11 10 11 6 0 10 -2 10 -4z m1197 -41
l2 -30 -10 28 c-9 24 -16 27 -55 27 -24 0 -44 3 -44 8 0 4 24 5 53 2 49 -5 52
-7 54 -35z m-2224 28 c-7 -2 -19 -2 -25 0 -7 3 -2 5 12 5 14 0 19 -2 13 -5z
m2367 -42 c7 -15 7 -22 -2 -27 -7 -4 -10 -4 -6 1 4 4 3 16 -3 26 -5 11 -7 19
-5 19 3 0 10 -9 16 -19z m270 -23 c0 -5 -9 -3 -20 4 -11 7 -20 16 -20 20 0 5
9 3 20 -4 11 -7 20 -16 20 -20z m-2663 6 c-3 -3 -12 -4 -19 -1 -8 3 -5 6 6 6
11 1 17 -2 13 -5z m2230 0 c-3 -3 -12 -4 -19 -1 -8 3 -5 6 6 6 11 1 17 -2 13
-5z m713 -9 c0 -8 -4 -15 -10 -15 -5 0 -10 7 -10 15 0 8 5 15 10 15 6 0 10 -7
10 -15z m-43 -27 c-3 -8 -6 -5 -6 6 -1 11 2 17 5 13 3 -3 4 -12 1 -19z m-2057
-2 c0 -3 -4 -8 -10 -11 -5 -3 -10 -1 -10 4 0 6 5 11 10 11 6 0 10 -2 10 -4z
m1098 -8 c17 -17 15 -63 -3 -78 -12 -10 -20 -9 -40 4 -26 17 -33 40 -15 51 6
4 8 10 5 15 -4 7 6 13 36 19 3 0 10 -4 17 -11z m262 -18 c-6 -12 -16 -18 -23
-13 -8 5 -8 8 1 11 7 2 10 8 6 13 -3 5 2 9 11 9 13 0 14 -4 5 -20z m-1557 -4
c6 -15 -1 -26 -15 -26 -4 0 -8 9 -8 20 0 23 15 27 23 6z m1475 -24 c3 -16 -2
-22 -17 -22 -26 0 -36 17 -20 36 16 19 33 13 37 -14z m718 2 c22 6 24 3 23
-21 -1 -16 0 -35 2 -43 3 -9 -10 -22 -33 -33 -47 -23 -83 -9 -74 29 5 17 3 22
-7 18 -10 -3 -14 4 -14 24 0 24 4 29 21 26 12 -3 15 -2 8 2 -6 3 -9 10 -6 15
3 6 16 3 31 -6 15 -10 34 -14 49 -11z m-1681 -34 c11 -17 -5 -32 -21 -19 -8 6
-14 15 -14 20 0 12 27 11 35 -1z m-564 -159 c29 -23 24 -31 -13 -24 -19 4 -28
12 -28 24 0 24 12 24 41 0z m-1176 -21 c3 -5 -2 -10 -13 -10 -28 0 -34 -11
-16 -31 14 -16 15 -23 4 -48 -6 -16 -18 -32 -26 -35 -8 -3 -14 -14 -14 -24 0
-32 -53 -26 -78 8 -19 25 -20 30 -6 41 13 10 13 14 2 20 -8 4 -14 22 -13 40 0
28 4 33 30 36 16 3 32 6 34 9 9 8 90 4 96 -6z m2439 -36 c3 -9 3 -20 0 -25 -3
-6 -1 -16 5 -23 17 -20 2 -48 -23 -44 -15 2 -21 10 -21 30 0 14 -3 29 -7 33
-10 11 10 45 26 45 8 0 17 -7 20 -16z m-2619 -4 c3 -5 1 -10 -4 -10 -6 0 -11
5 -11 10 0 6 2 10 4 10 3 0 8 -4 11 -10z m1374 -64 c-9 -8 -10 -5 -5 14 3 14
6 32 7 40 1 8 4 2 6 -14 3 -16 -1 -34 -8 -40z m558 50 c-3 -8 -1 -17 6 -20 9
-5 9 -7 0 -12 -7 -3 -13 -12 -13 -19 0 -14 -38 -41 -52 -37 -12 3 -9 -13 5
-27 10 -11 9 -13 -4 -8 -12 4 -20 -13 -38 -90 -13 -52 -25 -92 -27 -90 -3 2 0
24 5 48 13 56 14 132 1 124 -5 -3 -6 -13 -3 -23 5 -14 3 -15 -7 -5 -11 10 -20
8 -46 -12 -18 -14 -34 -25 -37 -25 -2 0 22 28 54 62 43 47 57 69 57 90 -1 37
16 56 35 40 10 -9 18 -8 33 3 25 19 38 19 31 1z m-407 -66 c10 -6 14 -22 12
-47 -5 -68 -9 -73 -45 -61 -46 16 -84 44 -90 68 -7 27 -3 29 103 49 3 0 12 -4
20 -9z m-143 -16 c4 -13 -63 -51 -73 -41 -4 4 -2 7 4 7 7 0 12 5 12 11 0 5 -4
7 -10 4 -5 -3 -10 1 -10 9 0 23 70 32 77 10z m408 -103 c-3 -6 -11 -11 -17
-11 -6 0 -6 6 2 15 14 17 26 13 15 -4z m766 -74 c-13 -13 -14 5 -3 43 l7 25 3
-29 c2 -16 -1 -33 -7 -39z m-895 -2 c-3 -8 -1 -15 4 -15 6 0 5 -8 -2 -19 -9
-15 -15 -17 -30 -8 -25 16 -23 45 5 50 12 2 24 5 26 6 2 0 1 -6 -3 -14z m804
-4 c0 -5 -7 -12 -16 -15 -14 -5 -15 -4 -4 9 14 17 20 19 20 6z m1058 -38 c20
-27 14 -67 -13 -91 -13 -12 -27 -33 -31 -47 -7 -28 -19 -33 -28 -10 -3 8 6 28
19 44 41 48 28 113 -20 95 -8 -3 -17 -14 -20 -25 -4 -10 -13 -19 -21 -19 -17
0 -17 1 -4 35 17 43 89 55 118 18z m-1054 -49 c3 -8 0 -14 -7 -14 -13 0 -33
-23 -82 -96 -14 -20 -25 -33 -25 -29 0 4 -6 3 -12 -2 -7 -6 -25 -13 -40 -17
-16 -3 -28 -10 -28 -14 0 -11 -61 -3 -77 10 -7 5 -14 5 -17 -1 -3 -5 0 -12 6
-14 7 -3 3 -6 -9 -6 -13 -1 -23 -5 -23 -10 0 -5 10 -12 23 -14 16 -3 14 -5 -8
-4 -16 0 -34 -1 -40 -3 -17 -4 -35 0 -35 8 0 4 10 9 22 9 13 1 24 7 26 13 7
21 56 59 84 65 15 4 30 11 33 15 3 5 29 21 58 36 29 15 65 34 81 42 16 8 31
23 33 33 5 20 28 15 37 -7z m1003 -154 c-1 -11 -5 -20 -9 -20 -11 0 -20 19
-13 30 11 17 24 11 22 -10z m-1703 -111 c-3 -5 -10 -7 -15 -3 -5 3 -7 10 -3
15 3 5 10 7 15 3 5 -3 7 -10 3 -15z m-1524 -29 c0 -5 -4 -10 -10 -10 -5 0 -10
5 -10 10 0 6 5 10 10 10 6 0 10 -4 10 -10z m1211 -10 c24 -13 27 -52 3 -43
-13 5 -13 7 -2 14 10 7 9 9 -5 9 -11 0 -15 4 -11 12 5 8 2 9 -10 5 -10 -4 -15
-3 -11 3 8 13 12 12 36 0z m557 -50 c30 -38 22 -63 -29 -95 -21 -14 -40 -25
-43 -25 -10 0 -26 96 -21 121 6 25 11 29 38 28 23 0 39 -8 55 -29z m2643 -80
c40 -22 10 -110 -38 -110 -25 0 -53 30 -53 57 0 26 32 63 56 63 8 0 24 -5 35
-10z m-203 -237 l3 -133 -124 0 -123 0 -3 125 c-1 69 1 130 4 135 4 7 52 10
123 8 l117 -3 3 -132z m-3928 50 c25 -25 36 -41 25 -35 -26 14 -92 82 -79 82
5 0 29 -21 54 -47z m4710 11 c0 -8 -5 -12 -10 -9 -6 4 -8 11 -5 16 9 14 15 11
15 -7z m-2150 -296 c0 -19 -2 -20 -10 -8 -13 19 -13 30 0 30 6 0 10 -10 10
-22z m2446 -63 c21 -32 12 -67 -21 -85 -23 -12 -28 -11 -50 10 -30 28 -32 53
-5 80 27 27 56 25 76 -5z"/>
<path d="M4242 3218 c-17 -36 -23 -76 -13 -83 6 -3 13 10 17 30 3 19 10 38 15
41 11 7 12 34 1 34 -5 0 -14 -10 -20 -22z"/>
<path d="M4221 3094 c0 -11 3 -14 6 -6 3 7 2 16 -1 19 -3 4 -6 -2 -5 -13z"/>
<path d="M4480 2181 c0 -5 7 -14 15 -21 8 -7 15 -19 15 -27 0 -27 16 -4 18 26
2 27 -1 31 -23 31 -14 0 -25 -4 -25 -9z"/>
<path d="M4542 2163 c2 -17 9 -28 18 -28 9 0 16 11 18 28 3 22 -1 27 -18 27
-17 0 -21 -5 -18 -27z"/>
<path d="M3550 2795 c-9 -23 -8 -31 5 -44 14 -14 16 -14 14 -1 -1 8 1 23 6 33
4 11 3 23 -3 29 -8 8 -14 3 -22 -17z"/>
<path d="M3244 2739 c-3 -5 4 -9 15 -9 16 0 19 -5 16 -30 -2 -16 1 -32 6 -35
5 -4 9 12 9 33 0 31 -4 41 -20 45 -11 3 -23 1 -26 -4z"/>
<path d="M3595 2690 c3 -5 10 -10 16 -10 5 0 9 5 9 10 0 6 -7 10 -16 10 -8 0
-12 -4 -9 -10z"/>
<path d="M3354 2521 c4 -5 1 -12 -4 -14 -6 -3 -5 -4 2 -3 15 3 23 26 8 26 -6
0 -9 -4 -6 -9z"/>
<path d="M3116 2275 c-9 -9 -13 -21 -10 -27 3 -5 13 0 21 12 19 26 11 37 -11
15z"/>
<path d="M3664 2830 c1 -21 5 -29 14 -25 8 3 23 5 34 5 17 0 18 3 8 14 -6 8
-18 12 -26 9 -8 -3 -14 1 -14 11 0 9 -4 16 -9 16 -4 0 -8 -14 -7 -30z"/>
<path d="M4072 2576 c7 -8 15 -12 17 -11 5 6 -10 25 -20 25 -5 0 -4 -6 3 -14z"/>
<path d="M4122 2470 c0 -14 2 -19 5 -12 2 6 2 18 0 25 -3 6 -5 1 -5 -13z"/>
<path d="M4090 2449 c0 -5 5 -7 10 -4 6 3 10 8 10 11 0 2 -4 4 -10 4 -5 0 -10
-5 -10 -11z"/>
<path d="M4020 2410 c-9 -6 -10 -10 -3 -10 6 0 15 5 18 10 8 12 4 12 -15 0z"/>
<path d="M3644 2339 c-3 -5 8 -9 24 -9 41 0 57 -22 44 -60 -13 -37 0 -40 17
-4 10 22 9 31 -4 50 -8 13 -21 24 -28 25 -6 0 -20 2 -29 4 -10 2 -20 -1 -24
-6z"/>
<path d="M3619 2303 c0 -5 -2 -16 -4 -25 -4 -24 46 -60 66 -47 13 8 6 13 -14
10 -16 -3 -39 30 -34 49 3 11 1 20 -4 20 -5 0 -9 -3 -10 -7z"/>
<path d="M3355 2290 c-3 -6 1 -7 9 -4 18 7 21 14 7 14 -6 0 -13 -4 -16 -10z"/>
<path d="M3350 2265 c0 -5 5 -17 10 -25 5 -8 10 -10 10 -5 0 6 -5 17 -10 25
-5 8 -10 11 -10 5z"/>
<path d="M5920 2220 c0 -5 5 -10 10 -10 6 0 10 5 10 10 0 6 -4 10 -10 10 -5 0
-10 -4 -10 -10z"/>
<path d="M6670 2320 c0 -5 5 -10 11 -10 5 0 7 5 4 10 -3 6 -8 10 -11 10 -2 0
-4 -4 -4 -10z"/>
<path d="M6763 1853 c-15 -5 -17 -23 -4 -23 5 0 11 7 15 15 3 8 4 15 3 14 -1
0 -8 -3 -14 -6z"/>
<path d="M7036 1483 c-6 -14 -5 -15 5 -6 7 7 10 15 7 18 -3 3 -9 -2 -12 -12z"/>
<path d="M7007 1442 c-19 -20 -23 -37 -7 -27 10 6 33 45 27 45 -2 0 -11 -8
-20 -18z"/>
</g>
</svg>
